solid 
	facet normal -1.0000000e+00 0.0000000e+00 -0.0000000e+00
		outer loop
			vertex -4.0000000e+01 4.0000000e+01 1.6000000e+02
			vertex -4.0000000e+01 4.0000000e+01 0.0000000e+00
			vertex -4.0000000e+01 -4.0000000e+01 0.0000000e+00
		endloop 
	endfacet 
	facet normal -1.0000000e+00 0.0000000e+00 0.0000000e+00
		outer loop
			vertex -4.0000000e+01 -4.0000000e+01 0.0000000e+00
			vertex -4.0000000e+01 -4.0000000e+01 1.6000000e+02
			vertex -4.0000000e+01 4.0000000e+01 1.6000000e+02
		endloop 
	endfacet 
	facet normal 0.0000000e+00 -1.0000000e+00 0.0000000e+00
		outer loop
			vertex -4.0000000e+01 -4.0000000e+01 1.6000000e+02
			vertex -4.0000000e+01 -4.0000000e+01 0.0000000e+00
			vertex 4.0000000e+01 -4.0000000e+01 0.0000000e+00
		endloop 
	endfacet 
	facet normal 0.0000000e+00 -1.0000000e+00 0.0000000e+00
		outer loop
			vertex 4.0000000e+01 -4.0000000e+01 0.0000000e+00
			vertex 4.0000000e+01 -4.0000000e+01 1.6000000e+02
			vertex -4.0000000e+01 -4.0000000e+01 1.6000000e+02
		endloop 
	endfacet 
	facet normal 1.0000000e+00 0.0000000e+00 0.0000000e+00
		outer loop
			vertex 4.0000000e+01 -4.0000000e+01 1.6000000e+02
			vertex 4.0000000e+01 -4.0000000e+01 0.0000000e+00
			vertex 4.0000000e+01 4.0000000e+01 0.0000000e+00
		endloop 
	endfacet 
	facet normal 1.0000000e+00 0.0000000e+00 -0.0000000e+00
		outer loop
			vertex 4.0000000e+01 4.0000000e+01 0.0000000e+00
			vertex 4.0000000e+01 4.0000000e+01 1.6000000e+02
			vertex 4.0000000e+01 -4.0000000e+01 1.6000000e+02
		endloop 
	endfacet 
	facet normal 0.0000000e+00 1.0000000e+00 0.0000000e+00
		outer loop
			vertex 4.0000000e+01 4.0000000e+01 1.6000000e+02
			vertex 4.0000000e+01 4.0000000e+01 0.0000000e+00
			vertex -4.0000000e+01 4.0000000e+01 0.0000000e+00
		endloop 
	endfacet 
	facet normal 0.0000000e+00 1.0000000e+00 0.0000000e+00
		outer loop
			vertex -4.0000000e+01 4.0000000e+01 0.0000000e+00
			vertex -4.0000000e+01 4.0000000e+01 1.6000000e+02
			vertex 4.0000000e+01 4.0000000e+01 1.6000000e+02
		endloop 
	endfacet 
	facet normal 0.0000000e+00 0.0000000e+00 1.0000000e+00
		outer loop
			vertex 4.0000000e+01 4.0000000e+01 1.6000000e+02
			vertex -4.0000000e+01 4.0000000e+01 1.6000000e+02
			vertex -4.0000000e+01 -4.0000000e+01 1.6000000e+02
		endloop 
	endfacet 
	facet normal 0.0000000e+00 0.0000000e+00 1.0000000e+00
		outer loop
			vertex -4.0000000e+01 -4.0000000e+01 1.6000000e+02
			vertex 4.0000000e+01 -4.0000000e+01 1.6000000e+02
			vertex 4.0000000e+01 4.0000000e+01 1.6000000e+02
		endloop 
	endfacet 
	facet normal 0.0000000e+00 0.0000000e+00 -1.0000000e+00
		outer loop
			vertex 4.0000000e+01 -4.0000000e+01 0.0000000e+00
			vertex -4.0000000e+01 -4.0000000e+01 0.0000000e+00
			vertex -4.0000000e+01 4.0000000e+01 0.0000000e+00
		endloop 
	endfacet 
	facet normal 0.0000000e+00 0.0000000e+00 -1.0000000e+00
		outer loop
			vertex -4.0000000e+01 4.0000000e+01 0.0000000e+00
			vertex 4.0000000e+01 4.0000000e+01 0.0000000e+00
			vertex 4.0000000e+01 -4.0000000e+01 0.0000000e+00
		endloop 
	endfacet 
endsolid 
