solid 
	facet normal 0.0000000e+00 0.0000000e+00 -1.0000000e+00
		outer loop
			vertex 1.0628683e+03 4.0000000e+01 1.6000000e+02
			vertex 1.1428683e+03 4.0000000e+01 1.6000000e+02
			vertex 1.1428683e+03 -4.0000000e+01 1.6000000e+02
		endloop 
	endfacet 
	facet normal 0.0000000e+00 0.0000000e+00 -1.0000000e+00
		outer loop
			vertex 1.1428683e+03 -4.0000000e+01 1.6000000e+02
			vertex 1.0628683e+03 -4.0000000e+01 1.6000000e+02
			vertex 1.0628683e+03 4.0000000e+01 1.6000000e+02
		endloop 
	endfacet 
	facet normal 0.0000000e+00 -1.0000000e+00 0.0000000e+00
		outer loop
			vertex 1.0628683e+03 4.0000000e+01 1.6000000e+02
			vertex 1.0628683e+03 4.0000000e+01 0.0000000e+00
			vertex 1.1428683e+03 4.0000000e+01 0.0000000e+00
		endloop 
	endfacet 
	facet normal 0.0000000e+00 -1.0000000e+00 0.0000000e+00
		outer loop
			vertex 1.1428683e+03 4.0000000e+01 0.0000000e+00
			vertex 1.1428683e+03 4.0000000e+01 1.6000000e+02
			vertex 1.0628683e+03 4.0000000e+01 1.6000000e+02
		endloop 
	endfacet 
	facet normal 1.0000000e+00 0.0000000e+00 0.0000000e+00
		outer loop
			vertex 1.0628683e+03 -4.0000000e+01 1.6000000e+02
			vertex 1.0628683e+03 -4.0000000e+01 0.0000000e+00
			vertex 1.0628683e+03 4.0000000e+01 0.0000000e+00
		endloop 
	endfacet 
	facet normal 1.0000000e+00 0.0000000e+00 -0.0000000e+00
		outer loop
			vertex 1.0628683e+03 4.0000000e+01 0.0000000e+00
			vertex 1.0628683e+03 4.0000000e+01 1.6000000e+02
			vertex 1.0628683e+03 -4.0000000e+01 1.6000000e+02
		endloop 
	endfacet 
	facet normal 0.0000000e+00 1.0000000e+00 0.0000000e+00
		outer loop
			vertex 1.1428683e+03 -4.0000000e+01 1.6000000e+02
			vertex 1.1428683e+03 -4.0000000e+01 0.0000000e+00
			vertex 1.0628683e+03 -4.0000000e+01 0.0000000e+00
		endloop 
	endfacet 
	facet normal 0.0000000e+00 1.0000000e+00 0.0000000e+00
		outer loop
			vertex 1.0628683e+03 -4.0000000e+01 0.0000000e+00
			vertex 1.0628683e+03 -4.0000000e+01 1.6000000e+02
			vertex 1.1428683e+03 -4.0000000e+01 1.6000000e+02
		endloop 
	endfacet 
	facet normal -1.0000000e+00 0.0000000e+00 -0.0000000e+00
		outer loop
			vertex 1.1428683e+03 4.0000000e+01 1.6000000e+02
			vertex 1.1428683e+03 4.0000000e+01 0.0000000e+00
			vertex 1.1428683e+03 -4.0000000e+01 0.0000000e+00
		endloop 
	endfacet 
	facet normal -1.0000000e+00 0.0000000e+00 0.0000000e+00
		outer loop
			vertex 1.1428683e+03 -4.0000000e+01 0.0000000e+00
			vertex 1.1428683e+03 -4.0000000e+01 1.6000000e+02
			vertex 1.1428683e+03 4.0000000e+01 1.6000000e+02
		endloop 
	endfacet 
	facet normal 0.0000000e+00 -0.0000000e+00 -1.0000000e+00
		outer loop
			vertex -1.5000000e+03 1.1000000e+03 0.0000000e+00
			vertex -1.5000000e+03 -1.1000000e+03 0.0000000e+00
			vertex -2.5000000e+03 -3.6666666e+02 0.0000000e+00
		endloop 
	endfacet 
	facet normal 0.0000000e+00 0.0000000e+00 -1.0000000e+00
		outer loop
			vertex -5.0000000e+02 -1.1000000e+03 0.0000000e+00
			vertex -5.0000000e+02 1.1000000e+03 0.0000000e+00
			vertex 1.0628683e+03 4.0000000e+01 0.0000000e+00
		endloop 
	endfacet 
	facet normal 0.0000000e+00 0.0000000e+00 -1.0000000e+00
		outer loop
			vertex 1.5000000e+03 1.1000000e+03 0.0000000e+00
			vertex 1.1428683e+03 4.0000000e+01 0.0000000e+00
			vertex 1.0628683e+03 4.0000000e+01 0.0000000e+00
		endloop 
	endfacet 
	facet normal 0.0000000e+00 -0.0000000e+00 -1.0000000e+00
		outer loop
			vertex 2.5000000e+03 3.6666666e+02 0.0000000e+00
			vertex 2.5000000e+03 -3.6666666e+02 0.0000000e+00
			vertex 1.1428683e+03 -4.0000000e+01 0.0000000e+00
		endloop 
	endfacet 
	facet normal 0.0000000e+00 0.0000000e+00 -1.0000000e+00
		outer loop
			vertex 1.5000000e+03 -1.1000000e+03 0.0000000e+00
			vertex 5.0000000e+02 -1.1000000e+03 0.0000000e+00
			vertex 1.0628683e+03 -4.0000000e+01 0.0000000e+00
		endloop 
	endfacet 
	facet normal 0.0000000e+00 0.0000000e+00 -1.0000000e+00
		outer loop
			vertex -2.5000000e+03 -3.6666666e+02 0.0000000e+00
			vertex -2.5000000e+03 3.6666666e+02 0.0000000e+00
			vertex -1.5000000e+03 1.1000000e+03 0.0000000e+00
		endloop 
	endfacet 
	facet normal 0.0000000e+00 -0.0000000e+00 -9.9999994e-01
		outer loop
			vertex 1.0628683e+03 4.0000000e+01 0.0000000e+00
			vertex 1.0628683e+03 -4.0000000e+01 0.0000000e+00
			vertex -5.0000000e+02 -1.1000000e+03 0.0000000e+00
		endloop 
	endfacet 
	facet normal 0.0000000e+00 0.0000000e+00 -1.0000000e+00
		outer loop
			vertex 1.0628683e+03 4.0000000e+01 0.0000000e+00
			vertex 5.0000000e+02 1.1000000e+03 0.0000000e+00
			vertex 1.5000000e+03 1.1000000e+03 0.0000000e+00
		endloop 
	endfacet 
	facet normal 0.0000000e+00 0.0000000e+00 -1.0000000e+00
		outer loop
			vertex 1.1428683e+03 -4.0000000e+01 0.0000000e+00
			vertex 1.1428683e+03 4.0000000e+01 0.0000000e+00
			vertex 2.5000000e+03 3.6666666e+02 0.0000000e+00
		endloop 
	endfacet 
	facet normal 0.0000000e+00 0.0000000e+00 -1.0000000e+00
		outer loop
			vertex 1.0628683e+03 -4.0000000e+01 0.0000000e+00
			vertex 1.1428683e+03 -4.0000000e+01 0.0000000e+00
			vertex 1.5000000e+03 -1.1000000e+03 0.0000000e+00
		endloop 
	endfacet 
	facet normal 0.0000000e+00 0.0000000e+00 -1.0000000e+00
		outer loop
			vertex -1.5000000e+03 -1.1000000e+03 0.0000000e+00
			vertex -2.5000000e+03 -1.1000000e+03 0.0000000e+00
			vertex -2.5000000e+03 -3.6666666e+02 0.0000000e+00
		endloop 
	endfacet 
	facet normal 0.0000000e+00 0.0000000e+00 -1.0000000e+00
		outer loop
			vertex -1.5000000e+03 -1.1000000e+03 0.0000000e+00
			vertex -1.5000000e+03 1.1000000e+03 0.0000000e+00
			vertex -5.0000000e+02 1.1000000e+03 0.0000000e+00
		endloop 
	endfacet 
	facet normal 0.0000000e+00 0.0000000e+00 -1.0000000e+00
		outer loop
			vertex 1.0628683e+03 4.0000000e+01 0.0000000e+00
			vertex -5.0000000e+02 1.1000000e+03 0.0000000e+00
			vertex 5.0000000e+02 1.1000000e+03 0.0000000e+00
		endloop 
	endfacet 
	facet normal 0.0000000e+00 0.0000000e+00 -1.0000000e+00
		outer loop
			vertex 1.1428683e+03 4.0000000e+01 0.0000000e+00
			vertex 2.5000000e+03 1.1000000e+03 0.0000000e+00
			vertex 2.5000000e+03 3.6666666e+02 0.0000000e+00
		endloop 
	endfacet 
	facet normal 0.0000000e+00 0.0000000e+00 -1.0000000e+00
		outer loop
			vertex 1.1428683e+03 -4.0000000e+01 0.0000000e+00
			vertex 2.5000000e+03 -1.1000000e+03 0.0000000e+00
			vertex 1.5000000e+03 -1.1000000e+03 0.0000000e+00
		endloop 
	endfacet 
	facet normal 0.0000000e+00 0.0000000e+00 -1.0000000e+00
		outer loop
			vertex -5.0000000e+02 -1.1000000e+03 0.0000000e+00
			vertex -1.5000000e+03 -1.1000000e+03 0.0000000e+00
			vertex -5.0000000e+02 1.1000000e+03 0.0000000e+00
		endloop 
	endfacet 
	facet normal -0.0000000e+00 -0.0000000e+00 -9.9999994e-01
		outer loop
			vertex 2.5000000e+03 -3.6666666e+02 0.0000000e+00
			vertex 2.5000000e+03 -1.1000000e+03 0.0000000e+00
			vertex 1.1428683e+03 -4.0000000e+01 0.0000000e+00
		endloop 
	endfacet 
	facet normal 0.0000000e+00 0.0000000e+00 -1.0000000e+00
		outer loop
			vertex -2.5000000e+03 3.6666666e+02 0.0000000e+00
			vertex -2.5000000e+03 1.1000000e+03 0.0000000e+00
			vertex -1.5000000e+03 1.1000000e+03 0.0000000e+00
		endloop 
	endfacet 
	facet normal 0.0000000e+00 0.0000000e+00 -1.0000000e+00
		outer loop
			vertex 5.0000000e+02 -1.1000000e+03 0.0000000e+00
			vertex -5.0000000e+02 -1.1000000e+03 0.0000000e+00
			vertex 1.0628683e+03 -4.0000000e+01 0.0000000e+00
		endloop 
	endfacet 
	facet normal 0.0000000e+00 -0.0000000e+00 -1.0000000e+00
		outer loop
			vertex 1.5000000e+03 1.1000000e+03 0.0000000e+00
			vertex 2.5000000e+03 1.1000000e+03 0.0000000e+00
			vertex 1.1428683e+03 4.0000000e+01 0.0000000e+00
		endloop 
	endfacet 
	facet normal -0.0000000e+00 -1.0000000e+00 0.0000000e+00
		outer loop
			vertex 2.5000000e+03 -1.1000000e+03 9.0000000e+02
			vertex 1.5000000e+03 -1.1000000e+03 9.0000000e+02
			vertex 1.5000000e+03 -1.1000000e+03 0.0000000e+00
		endloop 
	endfacet 
	facet normal 0.0000000e+00 -1.0000000e+00 0.0000000e+00
		outer loop
			vertex 5.0000000e+02 -1.1000000e+03 0.0000000e+00
			vertex 1.5000000e+03 -1.1000000e+03 0.0000000e+00
			vertex 1.5000000e+03 -1.1000000e+03 9.0000000e+02
		endloop 
	endfacet 
	facet normal -0.0000000e+00 -1.0000000e+00 0.0000000e+00
		outer loop
			vertex 1.5000000e+03 -1.1000000e+03 9.0000000e+02
			vertex 5.0000000e+02 -1.1000000e+03 9.0000000e+02
			vertex 5.0000000e+02 -1.1000000e+03 0.0000000e+00
		endloop 
	endfacet 
	facet normal 0.0000000e+00 -1.0000000e+00 0.0000000e+00
		outer loop
			vertex -5.0000000e+02 -1.1000000e+03 0.0000000e+00
			vertex 5.0000000e+02 -1.1000000e+03 0.0000000e+00
			vertex 5.0000000e+02 -1.1000000e+03 9.0000000e+02
		endloop 
	endfacet 
	facet normal -0.0000000e+00 -1.0000000e+00 0.0000000e+00
		outer loop
			vertex 5.0000000e+02 -1.1000000e+03 9.0000000e+02
			vertex -5.0000000e+02 -1.1000000e+03 9.0000000e+02
			vertex -5.0000000e+02 -1.1000000e+03 0.0000000e+00
		endloop 
	endfacet 
	facet normal 0.0000000e+00 -1.0000000e+00 0.0000000e+00
		outer loop
			vertex -1.5000000e+03 -1.1000000e+03 0.0000000e+00
			vertex -5.0000000e+02 -1.1000000e+03 0.0000000e+00
			vertex -5.0000000e+02 -1.1000000e+03 9.0000000e+02
		endloop 
	endfacet 
	facet normal -0.0000000e+00 -1.0000000e+00 0.0000000e+00
		outer loop
			vertex -5.0000000e+02 -1.1000000e+03 9.0000000e+02
			vertex -1.5000000e+03 -1.1000000e+03 9.0000000e+02
			vertex -1.5000000e+03 -1.1000000e+03 0.0000000e+00
		endloop 
	endfacet 
	facet normal 0.0000000e+00 -1.0000000e+00 0.0000000e+00
		outer loop
			vertex -2.5000000e+03 -1.1000000e+03 0.0000000e+00
			vertex -1.5000000e+03 -1.1000000e+03 0.0000000e+00
			vertex -1.5000000e+03 -1.1000000e+03 9.0000000e+02
		endloop 
	endfacet 
	facet normal -0.0000000e+00 -1.0000000e+00 0.0000000e+00
		outer loop
			vertex -1.5000000e+03 -1.1000000e+03 9.0000000e+02
			vertex -2.5000000e+03 -1.1000000e+03 9.0000000e+02
			vertex -2.5000000e+03 -1.1000000e+03 0.0000000e+00
		endloop 
	endfacet 
	facet normal 0.0000000e+00 -1.0000000e+00 0.0000000e+00
		outer loop
			vertex 1.5000000e+03 -1.1000000e+03 0.0000000e+00
			vertex 2.5000000e+03 -1.1000000e+03 0.0000000e+00
			vertex 2.5000000e+03 -1.1000000e+03 9.0000000e+02
		endloop 
	endfacet 
	facet normal 0.0000000e+00 0.0000000e+00 1.0000000e+00
		outer loop
			vertex -2.5000000e+03 3.6666666e+02 9.0000000e+02
			vertex -5.0000000e+02 1.1000000e+03 9.0000000e+02
			vertex -1.5000000e+03 1.1000000e+03 9.0000000e+02
		endloop 
	endfacet 
	facet normal 0.0000000e+00 0.0000000e+00 1.0000000e+00
		outer loop
			vertex -2.5000000e+03 3.6666666e+02 9.0000000e+02
			vertex 2.5000000e+03 3.6666666e+02 9.0000000e+02
			vertex 5.0000000e+02 1.1000000e+03 9.0000000e+02
		endloop 
	endfacet 
	facet normal 0.0000000e+00 0.0000000e+00 1.0000000e+00
		outer loop
			vertex 5.0000000e+02 1.1000000e+03 9.0000000e+02
			vertex -5.0000000e+02 1.1000000e+03 9.0000000e+02
			vertex -2.5000000e+03 3.6666666e+02 9.0000000e+02
		endloop 
	endfacet 
	facet normal 0.0000000e+00 0.0000000e+00 1.0000000e+00
		outer loop
			vertex 2.5000000e+03 -3.6666666e+02 9.0000000e+02
			vertex 5.0000000e+02 -1.1000000e+03 9.0000000e+02
			vertex 1.5000000e+03 -1.1000000e+03 9.0000000e+02
		endloop 
	endfacet 
	facet normal 0.0000000e+00 0.0000000e+00 1.0000000e+00
		outer loop
			vertex 2.5000000e+03 -3.6666666e+02 9.0000000e+02
			vertex -2.5000000e+03 -3.6666666e+02 9.0000000e+02
			vertex -5.0000000e+02 -1.1000000e+03 9.0000000e+02
		endloop 
	endfacet 
	facet normal 0.0000000e+00 0.0000000e+00 1.0000000e+00
		outer loop
			vertex 2.5000000e+03 3.6666666e+02 9.0000000e+02
			vertex 1.5000000e+03 1.1000000e+03 9.0000000e+02
			vertex 5.0000000e+02 1.1000000e+03 9.0000000e+02
		endloop 
	endfacet 
	facet normal 0.0000000e+00 0.0000000e+00 1.0000000e+00
		outer loop
			vertex -5.0000000e+02 -1.1000000e+03 9.0000000e+02
			vertex 5.0000000e+02 -1.1000000e+03 9.0000000e+02
			vertex 2.5000000e+03 -3.6666666e+02 9.0000000e+02
		endloop 
	endfacet 
	facet normal 0.0000000e+00 -0.0000000e+00 1.0000000e+00
		outer loop
			vertex 2.5000000e+03 3.6666666e+02 9.0000000e+02
			vertex 2.5000000e+03 1.1000000e+03 9.0000000e+02
			vertex 1.5000000e+03 1.1000000e+03 9.0000000e+02
		endloop 
	endfacet 
	facet normal 0.0000000e+00 -0.0000000e+00 1.0000000e+00
		outer loop
			vertex 2.5000000e+03 -3.6666666e+02 9.0000000e+02
			vertex 2.5000000e+03 3.6666666e+02 9.0000000e+02
			vertex -2.5000000e+03 3.6666666e+02 9.0000000e+02
		endloop 
	endfacet 
	facet normal 0.0000000e+00 0.0000000e+00 1.0000000e+00
		outer loop
			vertex -2.5000000e+03 -3.6666666e+02 9.0000000e+02
			vertex -1.5000000e+03 -1.1000000e+03 9.0000000e+02
			vertex -5.0000000e+02 -1.1000000e+03 9.0000000e+02
		endloop 
	endfacet 
	facet normal 0.0000000e+00 0.0000000e+00 1.0000000e+00
		outer loop
			vertex -2.5000000e+03 3.6666666e+02 9.0000000e+02
			vertex -2.5000000e+03 -3.6666666e+02 9.0000000e+02
			vertex 2.5000000e+03 -3.6666666e+02 9.0000000e+02
		endloop 
	endfacet 
	facet normal 0.0000000e+00 0.0000000e+00 1.0000000e+00
		outer loop
			vertex -2.5000000e+03 -3.6666666e+02 9.0000000e+02
			vertex -2.5000000e+03 -1.1000000e+03 9.0000000e+02
			vertex -1.5000000e+03 -1.1000000e+03 9.0000000e+02
		endloop 
	endfacet 
	facet normal 0.0000000e+00 0.0000000e+00 1.0000000e+00
		outer loop
			vertex 1.5000000e+03 -1.1000000e+03 9.0000000e+02
			vertex 2.5000000e+03 -1.1000000e+03 9.0000000e+02
			vertex 2.5000000e+03 -3.6666666e+02 9.0000000e+02
		endloop 
	endfacet 
	facet normal 0.0000000e+00 0.0000000e+00 1.0000000e+00
		outer loop
			vertex -1.5000000e+03 1.1000000e+03 9.0000000e+02
			vertex -2.5000000e+03 1.1000000e+03 9.0000000e+02
			vertex -2.5000000e+03 3.6666666e+02 9.0000000e+02
		endloop 
	endfacet 
	facet normal -9.9999994e-01 0.0000000e+00 0.0000000e+00
		outer loop
			vertex -2.5000000e+03 -1.1000000e+03 9.0000000e+02
			vertex -2.5000000e+03 -3.6666666e+02 9.0000000e+02
			vertex -2.5000000e+03 -3.6666666e+02 0.0000000e+00
		endloop 
	endfacet 
	facet normal -1.0000000e+00 0.0000000e+00 0.0000000e+00
		outer loop
			vertex -2.5000000e+03 3.6666666e+02 0.0000000e+00
			vertex -2.5000000e+03 -3.6666666e+02 0.0000000e+00
			vertex -2.5000000e+03 -3.6666666e+02 9.0000000e+02
		endloop 
	endfacet 
	facet normal -1.0000000e+00 0.0000000e+00 0.0000000e+00
		outer loop
			vertex -2.5000000e+03 -3.6666666e+02 9.0000000e+02
			vertex -2.5000000e+03 3.6666666e+02 9.0000000e+02
			vertex -2.5000000e+03 3.6666666e+02 0.0000000e+00
		endloop 
	endfacet 
	facet normal -9.9999994e-01 0.0000000e+00 0.0000000e+00
		outer loop
			vertex -2.5000000e+03 1.1000000e+03 0.0000000e+00
			vertex -2.5000000e+03 3.6666666e+02 0.0000000e+00
			vertex -2.5000000e+03 3.6666666e+02 9.0000000e+02
		endloop 
	endfacet 
	facet normal -9.9999994e-01 0.0000000e+00 0.0000000e+00
		outer loop
			vertex -2.5000000e+03 3.6666666e+02 9.0000000e+02
			vertex -2.5000000e+03 1.1000000e+03 9.0000000e+02
			vertex -2.5000000e+03 1.1000000e+03 0.0000000e+00
		endloop 
	endfacet 
	facet normal -9.9999994e-01 0.0000000e+00 0.0000000e+00
		outer loop
			vertex -2.5000000e+03 -3.6666666e+02 0.0000000e+00
			vertex -2.5000000e+03 -1.1000000e+03 0.0000000e+00
			vertex -2.5000000e+03 -1.1000000e+03 9.0000000e+02
		endloop 
	endfacet 
	facet normal -0.0000000e+00 1.0000000e+00 0.0000000e+00
		outer loop
			vertex -2.5000000e+03 1.1000000e+03 9.0000000e+02
			vertex -1.5000000e+03 1.1000000e+03 9.0000000e+02
			vertex -1.5000000e+03 1.1000000e+03 0.0000000e+00
		endloop 
	endfacet 
	facet normal 0.0000000e+00 1.0000000e+00 0.0000000e+00
		outer loop
			vertex -5.0000000e+02 1.1000000e+03 0.0000000e+00
			vertex -1.5000000e+03 1.1000000e+03 0.0000000e+00
			vertex -1.5000000e+03 1.1000000e+03 9.0000000e+02
		endloop 
	endfacet 
	facet normal -0.0000000e+00 1.0000000e+00 0.0000000e+00
		outer loop
			vertex -1.5000000e+03 1.1000000e+03 9.0000000e+02
			vertex -5.0000000e+02 1.1000000e+03 9.0000000e+02
			vertex -5.0000000e+02 1.1000000e+03 0.0000000e+00
		endloop 
	endfacet 
	facet normal 0.0000000e+00 1.0000000e+00 0.0000000e+00
		outer loop
			vertex 5.0000000e+02 1.1000000e+03 0.0000000e+00
			vertex -5.0000000e+02 1.1000000e+03 0.0000000e+00
			vertex -5.0000000e+02 1.1000000e+03 9.0000000e+02
		endloop 
	endfacet 
	facet normal -0.0000000e+00 1.0000000e+00 0.0000000e+00
		outer loop
			vertex -5.0000000e+02 1.1000000e+03 9.0000000e+02
			vertex 5.0000000e+02 1.1000000e+03 9.0000000e+02
			vertex 5.0000000e+02 1.1000000e+03 0.0000000e+00
		endloop 
	endfacet 
	facet normal 0.0000000e+00 1.0000000e+00 0.0000000e+00
		outer loop
			vertex 1.5000000e+03 1.1000000e+03 0.0000000e+00
			vertex 5.0000000e+02 1.1000000e+03 0.0000000e+00
			vertex 5.0000000e+02 1.1000000e+03 9.0000000e+02
		endloop 
	endfacet 
	facet normal -0.0000000e+00 1.0000000e+00 0.0000000e+00
		outer loop
			vertex 5.0000000e+02 1.1000000e+03 9.0000000e+02
			vertex 1.5000000e+03 1.1000000e+03 9.0000000e+02
			vertex 1.5000000e+03 1.1000000e+03 0.0000000e+00
		endloop 
	endfacet 
	facet normal 0.0000000e+00 1.0000000e+00 0.0000000e+00
		outer loop
			vertex 2.5000000e+03 1.1000000e+03 0.0000000e+00
			vertex 1.5000000e+03 1.1000000e+03 0.0000000e+00
			vertex 1.5000000e+03 1.1000000e+03 9.0000000e+02
		endloop 
	endfacet 
	facet normal -0.0000000e+00 1.0000000e+00 0.0000000e+00
		outer loop
			vertex 1.5000000e+03 1.1000000e+03 9.0000000e+02
			vertex 2.5000000e+03 1.1000000e+03 9.0000000e+02
			vertex 2.5000000e+03 1.1000000e+03 0.0000000e+00
		endloop 
	endfacet 
	facet normal 0.0000000e+00 1.0000000e+00 0.0000000e+00
		outer loop
			vertex -1.5000000e+03 1.1000000e+03 0.0000000e+00
			vertex -2.5000000e+03 1.1000000e+03 0.0000000e+00
			vertex -2.5000000e+03 1.1000000e+03 9.0000000e+02
		endloop 
	endfacet 
	facet normal 9.9999994e-01 0.0000000e+00 0.0000000e+00
		outer loop
			vertex 2.5000000e+03 1.1000000e+03 9.0000000e+02
			vertex 2.5000000e+03 3.6666666e+02 9.0000000e+02
			vertex 2.5000000e+03 3.6666666e+02 0.0000000e+00
		endloop 
	endfacet 
	facet normal 1.0000000e+00 0.0000000e+00 0.0000000e+00
		outer loop
			vertex 2.5000000e+03 -3.6666666e+02 0.0000000e+00
			vertex 2.5000000e+03 3.6666666e+02 0.0000000e+00
			vertex 2.5000000e+03 3.6666666e+02 9.0000000e+02
		endloop 
	endfacet 
	facet normal 1.0000000e+00 0.0000000e+00 0.0000000e+00
		outer loop
			vertex 2.5000000e+03 3.6666666e+02 9.0000000e+02
			vertex 2.5000000e+03 -3.6666666e+02 9.0000000e+02
			vertex 2.5000000e+03 -3.6666666e+02 0.0000000e+00
		endloop 
	endfacet 
	facet normal 9.9999994e-01 0.0000000e+00 0.0000000e+00
		outer loop
			vertex 2.5000000e+03 -1.1000000e+03 0.0000000e+00
			vertex 2.5000000e+03 -3.6666666e+02 0.0000000e+00
			vertex 2.5000000e+03 -3.6666666e+02 9.0000000e+02
		endloop 
	endfacet 
	facet normal 9.9999994e-01 0.0000000e+00 0.0000000e+00
		outer loop
			vertex 2.5000000e+03 -3.6666666e+02 9.0000000e+02
			vertex 2.5000000e+03 -1.1000000e+03 9.0000000e+02
			vertex 2.5000000e+03 -1.1000000e+03 0.0000000e+00
		endloop 
	endfacet 
	facet normal 9.9999994e-01 0.0000000e+00 0.0000000e+00
		outer loop
			vertex 2.5000000e+03 3.6666666e+02 0.0000000e+00
			vertex 2.5000000e+03 1.1000000e+03 0.0000000e+00
			vertex 2.5000000e+03 1.1000000e+03 9.0000000e+02
		endloop 
	endfacet 
endsolid 
